<svg preserveAspectRatio="xMidYMid meet" data-bbox="-0.3 0.1 200 200" xmlns="http://www.w3.org/2000/svg" viewBox="-0.3 0.1 200 200" role="img">
    <g>
        <path d="M46 75.2l54.5 25.2 52.5-24V67H46v8.2z"></path>
        <path d="M101.9 108.2c-.1 0-.2.4-.3.4-.3.1-.6.4-1 .4-.3 0-.6-.3-.9-.4-.1 0-.1-.2-.2-.2s-.4-.1-.5-.2L46 83.7V134h107V84.8L102.1 108c-.1.1-.1.2-.2.2z"></path>
        <path d="M99.7.1C44.5.1-.3 44.9-.3 100.1s44.8 100 100 100 100-44.8 100-100S155 .1 99.7.1zM161 138.2c0 2.1-1.7 3.8-3.8 3.8H42.8c-2.1 0-3.8-1.7-3.8-3.8V62.8c0-2.1 1.7-3.8 3.8-3.8h114.3c2.1 0 3.8 1.7 3.8 3.8v75.4z"></path>
    </g>
</svg>