<svg preserveAspectRatio="xMidYMid meet" data-bbox="0.4 0.1 200 200" xmlns="http://www.w3.org/2000/svg" viewBox="0.4 0.1 200 200" role="img" fill="#61D0D4">
    <g>
        <path d="M105.9 113l2.2-70H95.2l2.2 70h8.5z"></path>
        <path d="M100.7 140.2c-4.8 0-8.7 3.9-8.7 8.7 0 4.8 3.9 8.7 8.7 8.7s8.7-3.9 8.7-8.7c-.1-4.8-3.9-8.7-8.7-8.7z"></path>
        <path d="M100.4.1C45.2.1.4 44.9.4 100.1s44.8 100 100 100 100-44.8 100-100S155.6.1 100.4.1zM88.8 36.8c.7-.7 1.6-.8 2.6-.8h20.5c1 0 1.9.1 2.6.8.7.7 1.1 1.5 1 2.5l-2.5 76.9c-.1 2-1.7 3.7-3.7 3.7H93.9c-2 0-3.6-1.8-3.7-3.8l-2.5-76.7c0-.9.4-1.9 1.1-2.6zm11.9 128c-8.8 0-16-7.2-16-16s7.2-16 16-16 16 7.2 16 16-7.2 16-16 16z"></path>
    </g>
</svg>